<?xml version="1.0" standalone="no"?>
<!DOCTYPE svg PUBLIC "-//W3C//DTD SVG 20010904//EN"
 "http://www.w3.org/TR/2001/REC-SVG-20010904/DTD/svg10.dtd">
<svg version="1.0" xmlns="http://www.w3.org/2000/svg"
 width="1229.000000pt" height="1229.000000pt" viewBox="0 0 1229.000000 1229.000000"
 preserveAspectRatio="xMidYMid meet">
<metadata>
Created by potrace 1.14, written by Peter Selinger 2001-2017
</metadata>
<g transform="translate(0.000000,1229.000000) scale(0.100000,-0.100000)"
fill="#000000" stroke="none">
<path d="M2723 10922 l-33 -3 4 -372 c3 -205 5 -442 6 -528 1 -85 5 -160 8
-166 4 -7 74 -13 177 -17 177 -6 262 -12 330 -22 22 -3 60 -8 85 -10 25 -3 68
-9 95 -14 28 -5 64 -12 80 -15 72 -12 97 -18 210 -46 131 -33 134 -34 281 -83
359 -121 701 -304 1019 -546 61 -46 112 -86 115 -89 3 -4 32 -29 64 -56 67
-56 81 -69 192 -176 457 -442 765 -919 952 -1474 52 -155 114 -404 136 -550 4
-22 8 -47 11 -55 7 -26 20 -149 32 -305 14 -184 8 -605 -11 -725 -2 -14 -7
-50 -11 -80 -3 -30 -8 -71 -11 -90 -5 -32 -50 -264 -58 -300 -121 -511 -378
-1019 -740 -1455 -103 -124 -377 -404 -480 -490 -176 -148 -336 -266 -481
-355 -119 -73 -235 -139 -235 -134 0 3 -12 -3 -27 -14 -30 -20 -222 -107 -313
-142 -30 -11 -64 -25 -75 -30 -39 -17 -291 -94 -375 -115 -44 -10 -270 -55
-300 -59 -19 -3 -66 -9 -105 -15 -38 -6 -108 -13 -155 -17 -47 -4 -96 -8 -110
-9 -14 -2 -69 -3 -123 -4 l-98 -1 5 -528 c3 -290 8 -534 11 -543 6 -17 -1 -17
245 -4 69 4 132 7 140 7 8 0 49 4 90 9 41 4 98 11 125 14 28 3 77 10 110 15
33 5 78 12 100 15 22 3 51 8 65 11 14 3 36 8 50 10 14 2 36 7 50 10 14 3 36 8
50 11 60 11 268 66 391 104 157 48 267 88 379 137 25 11 70 30 100 43 81 34
326 156 395 197 150 89 217 131 305 191 419 284 811 648 1154 1071 140 173
309 424 440 652 55 97 175 346 220 458 26 63 51 124 56 135 63 144 197 628
225 821 4 21 8 50 11 64 3 14 7 41 10 60 2 19 6 49 8 65 3 17 7 57 11 90 4 33
8 70 10 81 3 19 8 91 20 282 3 35 1 61 -3 58 -4 -2 -7 98 -8 222 -2 424 -13
599 -50 797 -8 44 -17 96 -20 115 -5 29 -23 121 -39 190 -3 12 -44 173 -60
230 -4 15 -50 164 -65 210 -79 246 -245 605 -398 860 -70 117 -227 354 -272
410 -11 14 -50 63 -87 110 -69 89 -137 170 -213 255 -73 83 -391 397 -455 450
-33 28 -67 56 -75 64 -15 15 -177 144 -239 191 -97 74 -281 198 -396 266 -430
258 -862 430 -1375 548 -82 19 -252 48 -360 61 -25 3 -54 8 -65 10 -11 2 -54
7 -95 10 -41 4 -86 8 -100 11 -13 2 -103 6 -200 10 -96 3 -186 7 -200 8 -14 0
-40 0 -57 -2z"/>
<path d="M2637 8434 c-1 -1 -28 -4 -60 -8 -120 -12 -246 -56 -329 -115 -58
-40 -79 -61 -178 -171 -46 -52 -101 -113 -121 -135 -21 -22 -52 -56 -69 -75
-205 -226 -301 -279 -516 -286 -189 -5 -344 55 -474 185 -108 108 -166 233
-172 370 -1 22 -4 45 -8 51 -5 8 -64 12 -175 14 l-168 2 6 -85 c19 -259 147
-490 367 -661 24 -19 55 -45 69 -58 57 -53 259 -132 381 -149 93 -13 279 -8
370 11 163 34 335 117 430 209 19 18 64 66 100 106 36 40 74 83 85 95 11 12
58 65 105 117 182 203 220 227 369 234 128 6 216 -28 306 -120 64 -64 95 -131
97 -208 1 -20 7 -42 15 -48 8 -7 74 -13 173 -14 153 -3 164 -1 162 25 -2 33
-12 118 -15 130 -2 8 -7 31 -11 50 -12 52 -72 168 -118 228 -116 154 -287 263
-458 291 -62 11 -158 19 -163 15z"/>
<path d="M2270 7329 c-223 -25 -408 -196 -449 -414 -77 -419 360 -742 741
-548 68 35 178 143 211 208 95 189 76 406 -51 565 -44 54 -51 60 -123 109 -90
60 -222 92 -329 80z m201 -193 c292 -139 260 -550 -52 -652 -155 -51 -346 38
-415 193 -86 195 27 431 232 482 66 17 174 6 235 -23z"/>
<path d="M2212 5706 c0 -286 4 -528 8 -536 7 -12 27 -15 102 -14 51 1 96 2
100 3 3 0 6 241 5 534 l-2 532 -107 1 -106 1 0 -521z"/>
<path d="M3277 5902 c-21 -2 -40 -9 -43 -16 -3 -7 -7 -213 -8 -457 -2 -244 -6
-455 -9 -469 -3 -14 -8 -52 -11 -85 -23 -229 -101 -455 -182 -527 -19 -16 -93
-52 -104 -49 -3 0 -5 -7 -5 -16 0 -10 -3 -22 -6 -28 -3 -5 -6 -43 -7 -83 l-1
-74 40 6 c60 8 163 60 215 108 105 97 201 334 229 567 4 30 8 62 10 73 5 25
16 158 20 238 2 36 4 67 5 70 2 5 15 -52 25 -110 24 -141 109 -401 172 -525
129 -255 283 -378 511 -409 31 -4 33 -2 28 17 -2 12 -10 54 -17 92 -14 80 -23
95 -54 95 -12 0 -37 7 -56 16 -160 78 -292 315 -379 679 -43 180 -44 194 -23
201 47 16 120 53 139 70 164 152 141 431 -46 549 -77 48 -155 67 -285 69 -66
1 -137 0 -158 -2z m283 -202 c81 -22 130 -89 124 -168 -8 -96 -57 -131 -211
-148 -53 -5 -53 -5 -54 23 -1 37 -1 217 0 271 l1 43 50 -5 c28 -3 68 -10 90
-16z"/>
<path d="M10350 4402 c-85 -10 -192 -69 -236 -129 -32 -44 -62 -115 -72 -170
-5 -28 -9 -184 -10 -348 0 -163 -3 -299 -6 -302 -3 -3 -39 -6 -81 -6 -62 0
-75 -3 -76 -16 -5 -112 2 -335 10 -345 7 -9 32 -12 70 -11 33 1 65 -1 72 -5 8
-6 11 -129 11 -475 0 -342 3 -471 11 -479 8 -8 86 -11 244 -11 200 0 233 2
234 15 0 8 1 227 1 485 l1 470 86 0 86 0 1 178 c1 123 -2 179 -10 185 -6 4
-40 8 -76 9 -36 1 -70 2 -76 2 -16 1 -12 445 5 487 15 38 43 52 99 48 37 -2
42 0 43 19 4 96 1 357 -4 377 l-6 25 -148 0 c-81 0 -159 -1 -173 -3z"/>
<path d="M10983 3728 c0 -147 -3 -271 -6 -274 -3 -4 -41 -7 -83 -8 l-77 -1 0
-161 c0 -220 -4 -211 83 -209 39 1 74 -3 77 -8 3 -5 6 -136 7 -290 2 -259 4
-287 23 -342 60 -169 165 -274 313 -315 45 -13 409 -22 411 -11 5 23 3 395 -2
403 -4 7 -42 12 -88 13 -102 3 -144 27 -160 92 -16 62 -15 450 2 455 6 3 56 4
110 3 53 -1 98 1 98 4 6 28 4 340 -2 352 -7 13 -25 17 -96 17 -48 0 -96 0
-105 1 -17 1 -18 21 -18 264 0 144 -4 267 -8 273 -5 8 -77 12 -243 11 l-237
-1 1 -268z"/>
<path d="M7875 3483 c-91 -17 -190 -74 -248 -142 -14 -17 -27 -31 -29 -31 -2
0 -4 26 -3 58 0 31 -4 62 -10 68 -7 7 -87 11 -245 10 l-235 -1 0 -653 c0 -419
4 -659 10 -670 9 -16 33 -18 243 -17 127 0 233 2 233 5 1 3 2 167 3 365 2 350
3 361 25 410 12 27 32 60 44 73 72 78 208 82 316 9 35 -24 45 -27 52 -16 26
42 166 283 195 336 l34 61 -42 37 c-46 40 -125 80 -179 90 -44 8 -138 12 -164
8z"/>
<path d="M8897 3484 c-1 -1 -33 -4 -72 -7 -157 -14 -342 -64 -422 -115 l-23
-14 77 -149 c42 -82 80 -149 85 -149 5 0 33 11 61 24 196 89 505 113 574 44 7
-8 15 -35 18 -61 4 -43 3 -47 -18 -48 -82 -2 -267 -18 -277 -24 -3 -1 -30 -6
-61 -9 -31 -4 -94 -17 -140 -30 -306 -84 -443 -229 -435 -462 2 -72 7 -92 39
-156 57 -116 139 -187 261 -227 83 -28 108 -31 206 -31 158 -1 263 23 351 78
63 40 81 46 78 24 -2 -9 0 -28 4 -42 l6 -25 238 0 238 0 -1 470 c-1 258 -4
486 -8 505 -21 109 -84 223 -152 277 -80 63 -193 105 -321 119 -59 6 -300 13
-306 8z m300 -870 c0 -92 -1 -95 -28 -115 -165 -117 -411 -84 -385 53 17 90
125 146 316 164 36 4 67 8 69 10 2 2 10 -1 16 -6 8 -7 12 -43 12 -106z"/>
</g>
</svg>
